<svg width="1200" height="320" viewBox="0 0 1200 320" fill="none" xmlns="http://www.w3.org/2000/svg" role="img" aria-labelledby="title desc">
  <title id="title">Harbor logo</title>
  <desc id="desc">Blue harbor icon with a shield, document brackets, and wave lines representing HAR security analysis.</desc>

  <defs>
    <linearGradient id="bg" x1="30" y1="20" x2="260" y2="290" gradientUnits="userSpaceOnUse">
      <stop stop-color="#0EA5E9"/>
      <stop offset="1" stop-color="#1E3A8A"/>
    </linearGradient>
    <linearGradient id="shield" x1="84" y1="52" x2="206" y2="218" gradientUnits="userSpaceOnUse">
      <stop stop-color="#E0F2FE" stop-opacity="0.95"/>
      <stop offset="1" stop-color="#BAE6FD" stop-opacity="0.72"/>
    </linearGradient>
    <linearGradient id="text" x1="330" y1="68" x2="830" y2="290" gradientUnits="userSpaceOnUse">
      <stop stop-color="#1D4ED8"/>
      <stop offset="1" stop-color="#0F172A"/>
    </linearGradient>
  </defs>

  <rect x="20" y="20" width="240" height="280" rx="56" fill="url(#bg)"/>

  <path d="M145 52L206 76V144C206 183.5 181.6 217.3 145 231C108.4 217.3 84 183.5 84 144V76L145 52Z" fill="url(#shield)"/>

  <path d="M116 115H135" stroke="#1E3A8A" stroke-width="10" stroke-linecap="round"/>
  <path d="M174 115H155" stroke="#1E3A8A" stroke-width="10" stroke-linecap="round"/>
  <path d="M132 99L116 115L132 131" stroke="#1E3A8A" stroke-width="10" stroke-linecap="round" stroke-linejoin="round"/>
  <path d="M158 99L174 115L158 131" stroke="#1E3A8A" stroke-width="10" stroke-linecap="round" stroke-linejoin="round"/>

  <path d="M95 192C110 180 125 180 140 192C155 204 170 204 185 192" stroke="#F0F9FF" stroke-width="7" stroke-linecap="round"/>
  <path d="M85 216C103 202 123 202 141 216C159 230 179 230 197 216" stroke="#BAE6FD" stroke-width="7" stroke-linecap="round" opacity="0.95"/>
  <path d="M75 240C96 224 121 224 142 240C163 256 188 256 209 240" stroke="#7DD3FC" stroke-width="7" stroke-linecap="round" opacity="0.88"/>

  <text x="320" y="176" fill="url(#text)" font-family="Inter, Segoe UI, Roboto, Helvetica, Arial, sans-serif" font-size="120" font-weight="750" letter-spacing="2">HARbor</text>
  <text x="324" y="236" fill="#1E3A8A" font-family="Inter, Segoe UI, Roboto, Helvetica, Arial, sans-serif" font-size="36" font-weight="600" letter-spacing="3">HAR SECURITY ANALYZER</text>
</svg>